HIERARCHY
ROOT Hips
{
  OFFSET 5.72205e-005 65.662 3.42586
  CHANNELS 6 Xposition Yposition Zposition Zrotation Xrotation Yrotation
  JOINT Chest
  {
    OFFSET 0 8.7983 -4.7612
    CHANNELS 3 Zrotation Xrotation Yrotation
    JOINT Chest2
    {
      OFFSET 0 8.0291 0.4195
      CHANNELS 3 Zrotation Xrotation Yrotation
      JOINT Chest3
      {
        OFFSET 0 9.9351 -2.2114
        CHANNELS 3 Zrotation Xrotation Yrotation
        JOINT Neck
        {
          OFFSET 0 22.3885 -0.4656
          CHANNELS 3 Zrotation Xrotation Yrotation
          JOINT Head
          {
            OFFSET -0.0001 12.643 3.4389
            CHANNELS 3 Zrotation Xrotation Yrotation
            End Site
            {
              OFFSET 0.0001 17.6655 0.5274
            }
          }
        }
        JOINT LeftCollar
        {
          OFFSET 2.2603 21.606 7.4023
          CHANNELS 3 Zrotation Xrotation Yrotation
          JOINT LeftShoulder
          {
            OFFSET 13.5163 -1.1332 -5.0146
            CHANNELS 3 Zrotation Xrotation Yrotation
            JOINT LeftElbow
            {
              OFFSET -0.0995 -28.05 -0.2431
              CHANNELS 3 Zrotation Xrotation Yrotation
              JOINT LeftWrist
              {
                OFFSET 0.0679 -23.3996 -0.1402
                CHANNELS 3 Zrotation Xrotation Yrotation
                JOINT LeftFinger1
                {
                  OFFSET 0.7932 -9.069 2.5189
                  CHANNELS 3 Zrotation Xrotation Yrotation
                  JOINT LeftFinger11
                  {
                    OFFSET -0.8272 -3.3923 0.5977
                    CHANNELS 3 Zrotation Xrotation Yrotation
                    JOINT LeftFinger12
                    {
                      OFFSET -0.5649 -2.3158 0.4082
                      CHANNELS 3 Zrotation Xrotation Yrotation
                      End Site
                      {
                        OFFSET -0.4919 -1.6479 0.2673
                      }
                    }
                  }
                }
                JOINT LeftFinger2
                {
                  OFFSET 0.9159 -9.2044 0.2193
                  CHANNELS 3 Zrotation Xrotation Yrotation
                  JOINT LeftFinger21
                  {
                    OFFSET 0.0117 -4.1944 -0.0248
                    CHANNELS 3 Zrotation Xrotation Yrotation
                    JOINT LeftFinger22
                    {
                      OFFSET 0.0071 -2.3249 -0.0142
                      CHANNELS 3 Zrotation Xrotation Yrotation
                      End Site
                      {
                        OFFSET -0.1475 -2.0882 0.0028
                      }
                    }
                  }
                }
                JOINT LeftFinger3
                {
                  OFFSET 0.6113 -8.7231 -2.0637
                  CHANNELS 3 Zrotation Xrotation Yrotation
                  JOINT LeftFinger31
                  {
                    OFFSET -0.1927 -3.8059 -0.2383
                    CHANNELS 3 Zrotation Xrotation Yrotation
                    JOINT LeftFinger32
                    {
                      OFFSET -0.1091 -2.1688 -0.1362
                      CHANNELS 3 Zrotation Xrotation Yrotation
                      End Site
                      {
                        OFFSET -0.2358 -1.9176 -0.0906
                      }
                    }
                  }
                }
                JOINT LeftFinger4
                {
                  OFFSET -0.6151 -8.0947 -3.5641
                  CHANNELS 3 Zrotation Xrotation Yrotation
                  JOINT LeftFinger41
                  {
                    OFFSET -0.4882 -2.341 -0.6462
                    CHANNELS 3 Zrotation Xrotation Yrotation
                    JOINT LeftFinger42
                    {
                      OFFSET -0.3575 -1.7167 -0.4742
                      CHANNELS 3 Zrotation Xrotation Yrotation
                      End Site
                      {
                        OFFSET -0.4187 -1.5237 -0.3496
                      }
                    }
                  }
                }
                JOINT LeftFinger0
                {
                  OFFSET -1.42 -1.8761 1.4223
                  CHANNELS 3 Zrotation Xrotation Yrotation
                  JOINT LeftFinger01
                  {
                    OFFSET -1.1471 -3.4929 2.6334
                    CHANNELS 3 Zrotation Xrotation Yrotation
                    JOINT LeftFinger02
                    {
                      OFFSET -0.823 -2.3 1.6571
                      CHANNELS 3 Zrotation Xrotation Yrotation
                      End Site
                      {
                        OFFSET -0.5822 -1.6914 1.1582
                      }
                    }
                  }
                }
              }
            }
          }
        }
        JOINT RightCollar
        {
          OFFSET -2.2603 21.606 7.4023
          CHANNELS 3 Zrotation Xrotation Yrotation
          JOINT RightShoulder
          {
            OFFSET -13.5187 -1.1334 -5.0155
            CHANNELS 3 Zrotation Xrotation Yrotation
            JOINT RightElbow
            {
              OFFSET 0.0994 -28.0499 -0.2431
              CHANNELS 3 Zrotation Xrotation Yrotation
              JOINT RightWrist
              {
                OFFSET -0.0679 -23.3996 -0.1402
                CHANNELS 3 Zrotation Xrotation Yrotation
                JOINT RightFinger1
                {
                  OFFSET -0.7932 -9.0691 2.5189
                  CHANNELS 3 Zrotation Xrotation Yrotation
                  JOINT RightFinger11
                  {
                    OFFSET 0.8272 -3.3923 0.5977
                    CHANNELS 3 Zrotation Xrotation Yrotation
                    JOINT RightFinger12
                    {
                      OFFSET 0.565 -2.3158 0.4082
                      CHANNELS 3 Zrotation Xrotation Yrotation
                      End Site
                      {
                        OFFSET 0.4919 -1.6479 0.2673
                      }
                    }
                  }
                }
                JOINT RightFinger2
                {
                  OFFSET -0.916 -9.2044 0.2193
                  CHANNELS 3 Zrotation Xrotation Yrotation
                  JOINT RightFinger21
                  {
                    OFFSET -0.0117 -4.1944 -0.0248
                    CHANNELS 3 Zrotation Xrotation Yrotation
                    JOINT RightFinger22
                    {
                      OFFSET -0.0071 -2.3249 -0.0142
                      CHANNELS 3 Zrotation Xrotation Yrotation
                      End Site
                      {
                        OFFSET 0.1475 -2.0882 0.0028
                      }
                    }
                  }
                }
                JOINT RightFinger3
                {
                  OFFSET -0.6113 -8.7231 -2.0637
                  CHANNELS 3 Zrotation Xrotation Yrotation
                  JOINT RightFinger31
                  {
                    OFFSET 0.1927 -3.8059 -0.2383
                    CHANNELS 3 Zrotation Xrotation Yrotation
                    JOINT RightFinger32
                    {
                      OFFSET 0.1091 -2.1688 -0.1362
                      CHANNELS 3 Zrotation Xrotation Yrotation
                      End Site
                      {
                        OFFSET 0.2358 -1.9176 -0.0906
                      }
                    }
                  }
                }
                JOINT RightFinger4
                {
                  OFFSET 0.6151 -8.0947 -3.564
                  CHANNELS 3 Zrotation Xrotation Yrotation
                  JOINT RightFinger41
                  {
                    OFFSET 0.4882 -2.341 -0.6462
                    CHANNELS 3 Zrotation Xrotation Yrotation
                    JOINT RightFinger42
                    {
                      OFFSET 0.3574 -1.7166 -0.4742
                      CHANNELS 3 Zrotation Xrotation Yrotation
                      End Site
                      {
                        OFFSET 0.4187 -1.5237 -0.3496
                      }
                    }
                  }
                }
                JOINT RightFinger0
                {
                  OFFSET 1.4199 -1.8761 1.4221
                  CHANNELS 3 Zrotation Xrotation Yrotation
                  JOINT RightFinger01
                  {
                    OFFSET 1.1472 -3.4929 2.6336
                    CHANNELS 3 Zrotation Xrotation Yrotation
                    JOINT RightFinger02
                    {
                      OFFSET 0.8229 -2.3 1.6571
                      CHANNELS 3 Zrotation Xrotation Yrotation
                      End Site
                      {
                        OFFSET 0.5822 -1.6914 1.1582
                      }
                    }
                  }
                }
              }
            }
          }
        }
      }
    }
  }
  JOINT RightHip
  {
    OFFSET -9.412 3.9771 -0.7758
    CHANNELS 3 Zrotation Xrotation Yrotation
    JOINT RightKnee
    {
      OFFSET -0.7531 -40.938 0
      CHANNELS 3 Zrotation Xrotation Yrotation
      JOINT RightAnkle
      {
        OFFSET 0 -40.1986 0
        CHANNELS 3 Zrotation Xrotation Yrotation
        JOINT RightToe
        {
          OFFSET 0 -4.4182 9.239
          CHANNELS 3 Zrotation Xrotation Yrotation
          End Site
          {
            OFFSET 0 0 6.1981
          }
        }
      }
    }
  }
  JOINT LeftHip
  {
    OFFSET 9.4119 3.9773 -0.7758
    CHANNELS 3 Zrotation Xrotation Yrotation
    JOINT LeftKnee
    {
      OFFSET 0.7532 -40.9383 0
      CHANNELS 3 Zrotation Xrotation Yrotation
      JOINT LeftAnkle
      {
        OFFSET 0 -40.1986 0
        CHANNELS 3 Zrotation Xrotation Yrotation
        JOINT LeftToe
        {
          OFFSET 0 -4.4182 9.239
          CHANNELS 3 Zrotation Xrotation Yrotation
          End Site
          {
            OFFSET 0 0 6.1981
          }
        }
      }
    }
  }
}
MOTION
Frames:	5
Frame Time:	0.0333333
5.72205e-005 65.662 3.42586 0 0 -0 0 0 -0 0 0 -0 0 0 -0 0 0 -0 0 0 -0 0 0 -12.5014 88.1196 14.2451 10.6914 -0.00160068 -0.00239207 0.000740045 -8.4365e-005 7.00714e-005 -9.52055e-007 9.93923e-017 -1.98785e-016 -1.59028e-015 9.93923e-017 -5.96354e-016 -1.59028e-015 -9.93923e-017 -5.96354e-016 -1.59028e-015 9.93923e-017 -1.98785e-016 -1.59028e-015 -0.0128176 0.00232552 8.52707e-005 9.93923e-017 5.96354e-016 -0 9.93923e-017 -1.98785e-016 -1.59028e-015 -0.0160551 0.00299681 0.000857156 -2.48481e-016 0 3.18055e-015 9.93923e-017 -1.98785e-016 -1.59028e-015 -0.0125865 0.0031206 0.00282719 0 1.98785e-016 -0 9.93923e-017 -1.98785e-016 -1.59028e-015 9.93923e-017 -5.96354e-016 -1.59028e-015 -9.93923e-017 -5.96354e-016 -1.59028e-015 -0.865644 0.16582 7.03859 -88.0329 10.2057 -10.5567 0.0015593 -0.00248883 -0.000788628 7.87605e-005 4.10553e-005 1.24965e-005 -3.97569e-016 -7.95139e-016 3.18055e-015 -1.98785e-016 -3.97569e-016 3.18055e-015 -1.98785e-016 0 3.18055e-015 -3.97569e-016 -7.95139e-016 3.18055e-015 0.0129473 0.00231697 -8.70038e-005 9.93923e-017 -7.95139e-016 1.59028e-015 -3.97569e-016 -7.95139e-016 3.18055e-015 0.0163314 0.00303369 -0.000872333 3.97569e-016 7.95139e-016 -3.18055e-015 -3.97569e-016 -7.95139e-016 3.18055e-015 0.0145763 0.00367772 -0.00326275 9.93923e-017 -3.97569e-016 -0 -3.97569e-016 -7.95139e-016 3.18055e-015 -1.98785e-016 -3.97569e-016 3.18055e-015 -1.98785e-016 0 3.18055e-015 3.42482 1.32465 -0.0626183 0.000117508 0.717283 0.000978199 -3.4257 -2.04197 -0.0604716 6.47761e-025 0 -0 -3.42483 1.34017 0.0627307 -0.000193936 0.682302 -0.0013703 3.42574 -2.02253 0.0595886 -8.45714e-024 0 -7.40531e-025 
-7.58861 61.7585 -57.8773 -2.72046e-007 5.04555e-007 -52.0007 1.38691 -0.281141 0.0321573 2.77402 -0.561419 0.0711418 2.77402 -0.561419 0.0711361 -0.73896 1.00081 0.721656 -2.60004e-007 -3.04922e-007 0.736137 -32.3422 -1.4976 -10.2571 56.0159 17.4513 24.0187 -1.44745 -7.87004 -0.354555 -6.88346 1.25931 -0.137995 -3.46782e-007 5.13387e-006 2.79954e-006 7.46812e-006 -3.66819e-007 1.77767e-006 -1.53218e-006 9.09189e-007 3.05969e-007 -3.46782e-007 5.13387e-006 2.79954e-006 -0.0128127 0.00232468 7.66578e-005 -1.80275e-006 -6.48305e-007 3.35943e-006 -3.46782e-007 5.13387e-006 2.79954e-006 -0.0160173 0.00299202 0.000858827 -1.65263e-006 3.76709e-007 -4.0173e-006 -3.46782e-007 5.13387e-006 2.79954e-006 -0.012579 0.0031177 0.00282648 -3.18055e-015 1.27222e-014 -6.36111e-015 -3.46782e-007 5.13387e-006 2.79954e-006 7.46812e-006 -3.66819e-007 1.77767e-006 -1.53218e-006 9.09189e-007 3.05969e-007 31.4799 -1.29869 4.76873 -56.441 14.2946 -20.9033 1.42093 -7.87362 0.246441 7.38663 1.1392 -8.68416 4.77083e-015 -3.57812e-015 -0 7.1726e-032 -2.5842e-015 1.59028e-015 6.36111e-015 -5.36719e-015 -0 4.77083e-015 -3.57812e-015 -0 0.0130053 0.0023223 -7.91059e-005 1.59028e-015 3.37934e-015 1.59028e-015 4.77083e-015 -3.57812e-015 -0 0.0163436 0.00302816 -0.000874158 0 8.54774e-015 -0 4.77083e-015 -3.57812e-015 -0 0.014659 0.0036921 -0.00327523 1.59028e-015 1.78906e-015 -3.18055e-015 4.77083e-015 -3.57812e-015 -0 7.1726e-032 -2.5842e-015 1.59028e-015 6.36111e-015 -5.36719e-015 -0 -10.8619 -6.83858 -13.9151 2.23519 9.82784 -0.449509 -10.7052 -8.84163 -5.98837 -5.12556e-007 3.38022e-006 1.43592e-005 6.60641 -4.59555 0.808652 -0.403796 17.8142 -0.2177 -4.02333 -17.0914 36.772 1.98785e-016 0 1.59028e-015 
-7.58576 61.7585 -57.8772 9.33347e-008 -1.45383e-007 -52.0007 1.38442 -0.319778 0.0331382 2.76909 -0.638663 0.0740053 2.76909 -0.638661 0.0740181 -1.36112 2.06338 1.56352 1.64282e-006 -6.59869e-007 1.47148 -32.2007 -1.49807 -10.2275 56.065 17.4646 24.0099 -1.89759 -7.77685 -0.428647 -6.88336 1.25931 -0.137996 -0 -1.63346e-006 -0 -4.77083e-015 0 3.18055e-015 -6.36111e-015 6.36111e-015 3.18055e-015 -0 -1.63346e-006 -0 -0.0128309 0.00232597 8.87255e-005 6.36111e-015 3.18055e-015 -0 -0 -1.63346e-006 -0 -0.0160548 0.00298965 0.000852739 -4.77083e-015 6.36111e-015 -0 -0 -1.63346e-006 -0 -0.0125774 0.00311997 0.00282222 4.77083e-015 9.54166e-015 6.36111e-015 -0 -1.63346e-006 -0 -4.77083e-015 0 3.18055e-015 -6.36111e-015 6.36111e-015 3.18055e-015 31.7013 -1.32464 5.56849 -56.4158 13.9918 -20.91 1.78062 -8.68924 0.246162 6.70479 1.33401 -8.86054 -6.36111e-015 3.57812e-015 1.11319e-014 -9.54166e-015 9.93923e-016 1.11319e-014 -1.27222e-014 2.38542e-015 1.27222e-014 -6.36111e-015 3.57812e-015 1.11319e-014 0.0129326 0.00232625 -9.22197e-005 -1.59028e-015 1.98785e-016 -0 -6.36111e-015 3.57812e-015 1.11319e-014 0.0162608 0.00302117 -0.000877117 3.18055e-015 -1.98785e-015 -1.59028e-015 -6.36111e-015 3.57812e-015 1.11319e-014 0.0146051 0.00369175 -0.00328527 0 1.78906e-015 -0 -6.36111e-015 3.57812e-015 1.11319e-014 -9.54166e-015 9.93923e-016 1.11319e-014 -1.27222e-014 2.38542e-015 1.27222e-014 -10.771 -6.62539 -13.8922 2.29118 9.60351 -0.456911 -10.7069 -8.82228 -5.98397 -1.61339e-006 2.12313e-006 2.84769e-007 6.60516 -4.59808 0.808695 -0.40384 17.8164 -0.21764 -4.02195 -17.091 36.7722 -1.06385e-007 -2.58266e-008 8.38647e-009 
-7.58291 61.7586 -57.8772 -6.7068e-007 5.65039e-007 -52.0007 1.38198 -0.358423 0.0341293 2.76426 -0.715918 0.0768903 2.76425 -0.715914 0.0768983 -2.00083 3.11941 2.41992 1.39066e-006 1.85281e-007 2.20731 -32.0589 -1.49852 -10.1979 56.1144 17.477 24.001 -2.34743 -7.68235 -0.501956 -6.8833 1.25937 -0.137979 1.86585e-005 -4.35948e-006 -1.04454e-005 2.50886e-006 2.05219e-006 5.49482e-006 1.53876e-006 7.3324e-007 -3.13515e-007 1.86585e-005 -4.35948e-006 -1.04454e-005 -0.0128038 0.00232442 9.77985e-005 1.25396e-006 -2.13126e-006 2.74746e-006 1.86585e-005 -4.35948e-006 -1.04454e-005 -0.0160803 0.00300486 0.000867002 -1.53896e-006 -1.13376e-006 3.13444e-007 1.86585e-005 -4.35948e-006 -1.04454e-005 -0.0126023 0.00312801 0.00283477 1.25393e-006 -2.07209e-006 2.74756e-006 1.86585e-005 -4.35948e-006 -1.04454e-005 2.50886e-006 2.05219e-006 5.49482e-006 1.53876e-006 7.3324e-007 -3.13515e-007 31.9236 -1.34757 6.36903 -56.3907 13.6895 -20.9165 2.14153 -9.5061 0.251081 6.02202 1.53133 -9.03498 4.77083e-015 -6.95746e-015 -0 1.59028e-015 -7.55382e-015 1.59028e-015 -3.18055e-015 -7.7526e-015 -4.77083e-015 4.77083e-015 -6.95746e-015 -0 0.0128949 0.00231084 -7.22927e-005 0 2.5842e-015 -0 4.77083e-015 -6.95746e-015 -0 0.0162128 0.00302165 -0.00084646 3.18055e-015 -3.57812e-015 -0 4.77083e-015 -6.95746e-015 -0 0.0144711 0.00365467 -0.00323037 1.59028e-015 -8.74653e-015 -3.18055e-015 4.77083e-015 -6.95746e-015 -0 1.59028e-015 -7.55382e-015 1.59028e-015 -3.18055e-015 -7.7526e-015 -4.77083e-015 -10.6801 -6.4118 -13.8697 2.34701 9.3782 -0.463988 -10.7087 -8.80232 -5.97963 1.59028e-015 -9.41111e-008 -6.36111e-015 6.60384 -4.60137 0.808736 -0.403791 17.8193 -0.217571 -4.02059 -17.0908 36.7725 -1.06385e-007 -2.60676e-008 8.38648e-009 
-7.58005 61.7586 -57.8771 -9.82904e-008 7.1104e-007 -52.0007 1.37963 -0.39708 0.0351058 2.7596 -0.793199 0.0797801 2.75959 -0.793197 0.0797767 -2.65857 4.16817 3.29118 -4.07321e-006 -2.68731e-006 2.94356 -31.917 -1.49892 -10.1683 56.1635 17.4904 23.9921 -2.79744 -7.58814 -0.574564 -6.88318 1.25939 -0.137978 -1.2578e-006 -4.19167e-006 -6.28359e-006 -1.54195e-006 2.4249e-006 3.1729e-007 7.33471e-009 5.28685e-006 3.53628e-006 -1.2578e-006 -4.19167e-006 -6.28359e-006 -0.0128825 0.00234255 8.98999e-005 -2.94245e-006 2.37955e-006 -2.66597e-006 -1.2578e-006 -4.19167e-006 -6.28359e-006 -0.0160285 0.00299238 0.000850491 -2.94259e-006 6.67989e-006 -2.66596e-006 -1.2578e-006 -4.19167e-006 -6.28359e-006 -0.0126043 0.00313152 0.00281809 -1.54211e-006 -7.40155e-007 3.17238e-007 -1.2578e-006 -4.19167e-006 -6.28359e-006 -1.54195e-006 2.4249e-006 3.1729e-007 7.33471e-009 5.28685e-006 3.53628e-006 32.1464 -1.3674 7.17029 -56.3655 13.3873 -20.923 2.50383 -10.3237 0.2613 5.33839 1.73116 -9.20741 -2.38542e-015 -8.94531e-015 1.59028e-015 -3.18055e-015 -1.23246e-014 -0 3.14491e-031 -1.13307e-014 1.59028e-015 -2.38542e-015 -8.94531e-015 1.59028e-015 0.0129294 0.00230651 -9.68793e-005 -3.70185e-006 -3.15154e-006 1.37646e-006 -2.38542e-015 -8.94531e-015 1.59028e-015 0.0163922 0.00304851 -0.000868953 -7.95139e-016 4.96962e-015 -0 -2.38542e-015 -8.94531e-015 1.59028e-015 0.0145899 0.00368082 -0.00325956 1.18103e-006 3.46553e-006 -2.15551e-006 -2.38542e-015 -8.94531e-015 1.59028e-015 -3.18055e-015 -1.23246e-014 -0 3.14491e-031 -1.13307e-014 1.59028e-015 -10.5892 -6.19829 -13.8474 2.40272 9.15295 -0.470892 -10.7105 -8.78235 -5.97526 1.61515e-006 2.94774e-006 -2.8294e-007 6.60257 -4.60386 0.808748 -0.403816 17.8215 -0.217473 -4.01922 -17.0905 36.7727 -1.59577e-007 3.99103e-007 1.25797e-008 
